<?xml version="1.0" encoding="UTF-8"?>
<svg id="ELEMENTS" xmlns="http://www.w3.org/2000/svg" version="1.1" viewBox="0 0 231.37 229.65">
  <!-- Generator: Adobe Illustrator 29.0.1, SVG Export Plug-In . SVG Version: 2.1.0 Build 192)  -->
  <path d="M148.95,35.9c6.6-.72,13.12,1.47,14.45,8.63l.12,44.83c-.35,3.79-5.39,4.38-6.66.81v-42.86c-.17-1.61-.27-3.61-2.07-4.17l-106,.13c-1.38.59-1.74,2.25-1.79,3.62v145.23c.16,1.83.6,3.25,2.5,3.73l79.28.2c3.65.31,4.31,5.01,1.05,6.48l-80.12.2c-4.85-.22-9.14-4.51-9.36-9.36l.3-149.92c.86-2.6,2.3-4.71,4.74-6.08,30.35-7.66,61.13-14.07,91.69-21.05,11.74-.28,12.74,10.27,11.87,19.57ZM142.3,35.9v-8.94c0-1.68-2.42-4.34-4.3-3.93l-56.02,12.87h60.32Z"/>
  <path d="M97.29,62.24c41.22-3.84,61.02,47.97,28.34,72.02-27.94,20.56-66.37-1.81-63.61-36.15,1.45-18.04,17.22-34.19,35.27-35.87ZM98.62,69.6c-3.84,1.28-6.96,5.86-8.69,9.41-2.9,5.98-4.09,13.14-4.63,19.71h13.31v-29.12ZM118.59,98.72c-1.12-10.3-3.34-23.8-13.31-29.12v29.12h13.31ZM78.65,98.72c-.1-8.96,2.81-17.46,6.65-25.38-9.11,4.98-15.67,14.93-16.22,25.38h9.57ZM134.81,98.72c-.66-10.52-7.24-20.17-16.22-25.38,3.84,7.93,6.6,16.46,6.65,25.38h9.57ZM78.65,105.38h-9.57c.56,10.53,7.29,20.12,16.22,25.38-3.8-7.94-6.74-16.42-6.65-25.38ZM98.62,105.38h-13.31c1.04,10.44,3.36,23.64,13.31,29.12v-29.12ZM118.59,105.38h-13.31v29.12c9.96-5.59,12.12-18.69,13.31-29.12ZM134.81,105.38h-9.57c-.05,8.93-2.92,17.41-6.65,25.38,8.96-5.33,15.48-14.83,16.22-25.38Z"/>
  <path d="M161.85,160.92c.42-2.09,4.29-5.39,6.66-4.79v-23.93c-.06-2.83-2.76-3.51-4.38-5.17-8.54-8.72-7.27-23.27,2.59-30.31,18.89-13.48,41.31,10.27,27.76,28.18-1.65,2.18-5.73,4.48-6.01,6.89l.03,24.33c2.45-.48,6.64,2.99,6.64,5.22v8.11c5.53.5,12.26-.7,17.64.04,3.04.41,5.31,2.95,5.65,5.99.21,1.89.28,10.39-.19,11.88-.83,2.66-4.28,2.03-6.47,2.06v8.11c0,2.69-3.95,5-6.43,5.22-17.35,1.54-36.94-1.19-54.53,0-1.75.27-5.61-3.52-5.61-4.79v-8.53c-2.19-.02-5.64.6-6.47-2.06-.45-1.45-.42-10.47-.2-12.3.29-2.39,2.86-5.21,5.24-5.58,5.35-.83,12.52.56,18.07-.03.35-2.51-.47-6.19,0-8.53ZM181.82,156.14v-26.42c0-3.33,6.1-7.03,7.84-9.64,4.65-6.96,1.12-17.13-6.77-19.71-11.93-3.91-21.98,8.55-15.7,19.45,1.89,3.27,7.98,6.33,7.98,10.32v26h6.66ZM188.48,162.79h-19.97v6.66h19.97v-6.66ZM211.78,176.1h-66.56v6.66h66.56v-6.66ZM205.12,189.42h-53.25v6.66h53.25v-6.66Z"/>
  <path d="M61.06,172.87l67.73-.1c4.21.41,4.21,6.26,0,6.67H61.79c-3.8-.32-4.32-5.38-.73-6.58Z"/>
  <path d="M74.37,159.55l54.42-.1c4.21.41,4.21,6.26,0,6.67h-53.69c-3.8-.32-4.32-5.38-.73-6.58Z"/>
</svg>