<?xml version="1.0" encoding="UTF-8"?>
<svg id="ELEMENTS" xmlns="http://www.w3.org/2000/svg" version="1.1" viewBox="0 0 231.37 229.65">
  <!-- Generator: Adobe Illustrator 29.0.1, SVG Export Plug-In . SVG Version: 2.1.0 Build 192)  -->
  <g>
    <path d="M201,137.19c2.82-1.62,6.67-1.6,7.98-4.8l.09-32.39c-.45-4.26-3.23-7.02-7.52-7.46h-67.87s-1.43-12.35-1.43-12.35c11.09-6.79,28.11-20.94,16.8-34.86-7.7-9.48-19.54-5.35-28.54-.38-1.59.88-8.42,5.71-9.29,5.66l-36.17-17.95-3.54-.08c-3.72,3.31-10.45,6.2-13.75,9.63-2.52,2.62-1.17,4.62.74,6.95l23.23,25.7-13.71,12.11-17.74-8.84c-1.02-.27-2.31-.33-3.33,0-.54.17-6.8,4.68-7.47,5.32-1.67,1.59-2.16,2.63-1.38,5,.58,1.76,2.55,2.39,3.01,4.11h-12.99c-.13,0-2.03.78-2.34.95-2.08,1.08-3.05,2.88-4.06,4.89v34.28c1.91,3.02,5.41,2.82,8.43,4.55,9.57,5.48,9.55,20,.1,25.65-2.95,1.77-6.56,1.48-8.53,4.44v33.91c1.14,2.74,3.03,4.91,5.84,6.03,58.69.17,117.56.52,176.2-.17,2.61-.88,4.56-3.09,5.2-5.76v-33.75c-1.12-3.09-4.5-2.87-7.12-4.2-10.31-5.23-10.82-20.43-.86-26.15ZM66.73,45.69c1.41-.72,5.86-4.68,7.05-4.52l30.64,14.9-16.64,13.49-21.05-23.87ZM48.07,87.25c.51-.72.75-.55,1.46-.39,4.97,1.16,12.1,7.11,17.36,8.6,1.21.34,1.86.52,3.14.17,1.64-.44,7.18-5.99,8.96-7.48,13.13-11,28.85-25.77,43.01-34.8,5.76-3.67,19.01-10.62,22.18-.29,2.57,8.38-10.84,16.89-16.76,20.65-16.05,10.2-33.45,18.3-49.61,28.23-2.33,1.43-3.14,2.02-3.07,4.99.13,5.5,1.88,11.91,2.21,17.5.05.76.09,1.56-.05,2.31l-1.39.42-6.9-13.37c-3.11-5.07-10.25-.67-15.07-1.21,1.35-2.86,4.32-6.15,5.45-8.96.64-1.59.54-2.49-.33-3.97-2.04-3.47-7.5-7.69-10.08-11.11-.31-.41-.67-.66-.53-1.29ZM128.6,118.24c-.15,1.96-5.32,4.26-6.81,5.64l-15.21-28.21,18.32-10.43,3.69,33ZM201.02,171.66v27.71h-43.17v-10.76c0-2.49-3.96-3.7-6.13-2.82-.51.21-1.92,1.68-1.92,2.09v11.49H29.78v-27.71c20.81-6.6,20.83-36.67,0-43.39v-27.71h18.84c.19.05,1.63,1.46,1.6,1.94l-8.08,13.47c-1.23,3.23.51,5.95,3.96,6.07,4.04.14,10.26-1.9,14.61-2.15.62-.04,1.47-.15,2.01.18l8.25,15.48c1.63,1.92,3.55,2.25,5.77,1.06,1.38-.74,6.23-4.07,7.33-5.1,1.58-1.48,1.43-3.23,1.33-5.23-.12-2.42-2.62-17.23-2.14-18l16.21-8.45,17.24,32.08c1.45,1.95,3.23,2.31,5.55,1.57,2.39-2.41,13.75-8.38,14.57-11.01.12-7.3-1.63-14.59-2.03-21.9h15v11.12c0,1.26,2.79,2.83,4.17,2.72,1.52-.12,3.88-1.92,3.88-3.45v-10.39h43.17v27.53c-20.16,7.84-20.5,36.09,0,43.57Z"/>
    <path d="M130.96,164.72l-69.81.09c-4.52,1.29-4.12,7.38.64,7.95h69.17c5-.6,5-7.44,0-8.04Z"/>
    <path d="M60.24,149.5l55.34.28c5.03-.49,5.13-7.41,0-8.03l-54.44.09c-3.84,1.16-4.26,5.56-.9,7.66Z"/>
    <path d="M152.99,121.78c-1.44.24-2.95,1.6-3.18,3.04-.48,2.98-.4,13.99-.03,17.13.53,4.49,7.18,4.26,7.97-.09.54-2.95.39-12.39.1-15.61-.25-2.82-1.76-4.97-4.86-4.46Z"/>
    <path d="M152.99,154.6c-1.44.24-2.95,1.6-3.18,3.04-.45,2.81-.38,13.08-.03,16.03.53,4.42,7.18,4.26,7.97-.09.48-2.63.41-12.04.09-14.86-.3-2.68-2-4.58-4.85-4.11Z"/>
  </g>
  <g>
    <path d="M940.73,435.82c-3.64-7.7-14.08-5.75-14.78,2.77-.78,9.45,4.08,24.1,4.13,34,0,1.2.07,2.44-.58,3.51-46.18,24.3-99.18,24.16-150.22,22.98v-102c15.37-4.89,29.35-13.41,43.59-20.83l45.24-31.17v45.5c0,.25,2.92,3,3.62,3.37,5.89,3.11,10.7-1.25,11.38-7.34,1.93-17.41-1.63-38.09.14-55.86,9.3-7.01,15.79-16.88,23.97-24.98.88-.87.84-2.19,2.81-1.68l12.25,102.23c2.39,7.72,13.76,6.02,14.69-1.83l-13.96-113.93c-.63-23.49-2.46-54.47-7.43-77.53-2.43-11.26-14.7-26.95-27-26.95h-38.42c-1.56-8.49,6.67-11.86,10.42-19.06,5.13-9.86,7.64-45.77,6.43-57.32-1.94-18.41-15.95-32.72-32.81-38.62h-23.95c-16.43,5.64-29.41,18.24-32.66,35.77-2.21,11.92.67,50.42,6.55,60.89,3.94,7.01,11.13,9.37,9.15,18.33h-36.43c-6.59,0-18.63,10.26-21.89,16.06-5.29,9.43-5.78,32.6-4.55,43.44.75,6.61,5.1,11.06,11.96,7.98,7.16-3.21,2.77-31.67,4.24-39.75,3.77-20.71,40.68-9.73,54.95-12.94,4.52-1.02,8.06-7.43,7.7-11.79,8.89,2.77,17.07,2.76,25.94,0-.59,4.25,1.07,6.8,3.92,9.65l-62.8,56.36v-25.5c0-.28-3.52-3.77-4.01-3.98-4.72-2.03-9.27.29-10.94,5l.03,128.03c.16,9.65-11.04,13.21-15,3.92l-.52-82.51c-4.82-10.27-14.5-6.49-15.52,4.49-1.75,18.92-1.49,54.95,0,74.07,1.38,17.7,13.26,27.64,30.97,23.47.09,6.21-.9,11.77,2.05,17.44,2.03,33.33-2.88,70.19-.09,103.09.59,6.94,4.38,7.73,5.01,10.98.57,2.98.31,30.69-.5,32.46-.64,1.4-3.62,3.69-4.87,6.12-4.97,9.63-4.93,28.26,8.86,29.92,8.65,1.04,33.31,1.04,41.97,0,3.93-.47,6.2-3.69,8.12-3.86,1.23-.11,5.26,3.43,8.8,3.86,9.12,1.11,31.62.9,40.99.03,13.71-1.28,14.64-18.12,10.22-28.34-1.5-3.48-5.28-5.73-5.76-8.23-1.84-9.72,1.21-25,.11-35.34,11.19-2.7,22.42-5.35,33.32-9.12,7.84-2.71,30.55-10.86,34.28-17.65.99-1.8,2.11-5.83,2.13-7.87.12-11.83-4.93-27.46-5.23-39.76ZM783.28,514.08h17.96v27h-17.96v-27ZM793.79,105.11c10.55-31.01,56.86-23.71,58.35,8.97-5.67-3.3-7.74-14.62-13.91-16.55-12.55-3.93-12.94,8.27-20,14.07-4.84,3.98-11.02,6.07-17.23,5.21-9.35-1.29-10.12-3.2-7.22-11.71ZM802.72,167.11c-10.75-10.07-8.28-22.59-9.45-36.02,11.09,2.41,22.57,1.22,31.86-5.57,1.94-1.42,8.48-9.51,10.03-8.43,3.11,6.62,10.26,11.11,15.88,15.65-1.98,11.79.68,23.55-8.23,32.99-12.11,12.84-27.24,13.42-40.09,1.38ZM776.29,276.58l83.88-74.96c12.65-.44,33.67-4.46,39.37,10.47l8.59,65.49c.17,2.23-.59,3.63-1.64,5.45-2.82,4.91-13.07,15.86-17.39,20.57-30.83,33.59-70.66,61.19-112.81,78.47v-105.5ZM809.23,567.08h-33.93c-.42-3.89.28-8.55,4.24-10.25,3.48-1.49,23.57-1.3,26.97.47,4.1,2.12,2.5,5.86,2.72,9.78ZM827.2,545.58c0,.47-4.49,3.49-4.01,5.49-1.16.83-5.97-4.11-5.97-4.49v-32.5h9.98v31.5ZM842.17,514.08l17.96-2v29h-17.96v-27ZM868.12,567.08h-33.93c-.42-3.89.28-8.55,4.24-10.25,3.48-1.49,23.57-1.3,26.97.47,4.1,2.12,2.5,5.86,2.72,9.78Z"/>
    <path d="M713.35,238.65c-40.34-12.05-81.8-23.54-122.93-32.35l-118.49,32.33c-2.95,2.36-5.07,5.99-5.08,9.91v155.1c0,3.9,2.13,7.55,5.08,9.91l120.25,32.59,119.95-31.84c3.04-1.97,6.17-4.75,6.3-8.69l-.78-162.27-4.3-4.69ZM600.64,224.08l102.8,27.5v21.5l-102.8-18.5v-30.5ZM600.64,271.08l102.8,18.5v15.5l-102.8-13v-21ZM481.87,251.08l102.8-27v30.5l-102.8,18.5v-22ZM481.87,289.08l102.8-18v21l-102.8,13v-16ZM703,401.14l-100.86,26.97c-2.1.11-1.29-.01-1.51-1.49-.84-5.65,2.38-16.54-5.71-18.33-11.9-2.64-9.41,11.99-10.25,18.32-.19,1.45.57,1.68-1.44,1.44l-101.4-27.62.04-80.34,102.8-12v72.5c0,.3,2.09,4.97,2.52,5.47,3.86,4.42,13.45.79,13.45-3.47v-75.5l102.82,13.57-.46,80.49Z"/>
  </g>
  <g>
    <path d="M1250.04,67.63c-1.13-17.74-9.24-28.53-26.26-33.77l.04-60.51c-1.28-8.57-8.24-15.18-16.81-16.12h-181.96c-9.15.12-15.85,7.09-18.13,15.55l-.28,61.47c-13.11,3.19-22.73,13.54-25.28,26.74l-.09,107.76,3.77,5.58h30.69c.61-1.23,3.74-2.76,3.74-4.12v-21.33h191.63v20.58c0,1.22,3.45,3.96,4.49,4.87h29.94c3.04-1.97,4.38-4.94,4.52-8.58-1.61-32.15,2.03-66.2,0-98.12ZM1019.46-23.66c0-2.01,2.33-5.56,4.61-5.87l180.67-.51c1.98-.53,6.35,3.49,6.35,4.88v58.76h-12.73V4.03c0-4.84-8.22-12.65-12.86-14.09-7.54-2.34-34.13-1.95-42.93-1.29-6.8.51-12.11,2.02-16.46,7.49-1.12,1.41-4.1,6.36-4.1,7.88v29.57h-12.73V6.28c0-6.43-7.03-14.18-13.06-16.13-7.35-2.39-42.98-2.43-50.43-.19-5.83,1.75-13.61,9.39-13.61,15.58v28.07h-12.73V-23.66ZM1185.63,7.03v26.57h-50.9V6.28c.26-1.04,3.35-4.32,4.91-4.07,12.73.84,27.15-1.27,39.67-.1,2.51.24,6.32,2.25,6.32,4.92ZM1095.81,5.53v28.07h-50.15V5.53c0-1.68,4.66-3.25,6.33-3.4,8.78-.81,29.66-1,38.23.02,1.51.18,5.6,2.13,5.6,3.39ZM1236.53,161.6h-12.73v-21.33c0-1.71-4.29-4.83-6.33-4.15h-204.43c-2.37-.65-6.32,3-6.32,4.9v20.58h-12.73v-50.9h242.53v50.9ZM1236.53,97.23h-242.53v-33.31c0-7.18,9.17-17.06,16.81-16.87l209.61.04c5.94-.72,16.1,9.4,16.1,14.59v35.56Z"/>
    <path d="M1360.33-125.75l-182.42-81.81-5.34-1.4-187.59,83.44c-.95.14-3.69,3.53-3.69,3.79V-42.75h12.73v-72.61l178.65-79.93,179.15,79.93V-42.75h12.73v-79.35l-4.21-3.65Z"/>
    <path d="M1357.42,33.6c-28.09,2.03-59.98-2.7-87.62-.04-3.42.33-7.82,2.5-7.82,6.4v96.19h13.47v-38.18h76.35v38.18h12.73V38.09c-1.87-2.56-3.68-4.4-7.11-4.49ZM1351.81,84.5h-76.35v-37.43h76.35v37.43Z"/>
    <path d="M1339.46-10.56c.35,0,2.45-1.14,2.99-1.5,3.39-2.31,3-5.3,2.29-9.01-1.03-5.4-10.2-33.15-12.71-37.44-1.63-2.78-3.63-3.44-6.75-3.73-5.32-.51-20.46-.71-25.45.08-1.93.31-3.34,1.47-4.5,2.98l-13.84,40.85c-.96,3.57,2.95,7.77,6.33,7.77h19.09V8.15h-12.73v12.73h38.92v-11.6l-1.12-1.12h-12.35V-10.56h19.84ZM1297.17-24.04l8.2-24.36,15.41-.39,1.18.5,8.15,24.26h-32.94Z"/>
    <path d="M1133.1-133.84c-18.16,35.2,14.67,74.62,52.54,63.77,20.87-5.98,36.24-28.86,31.05-50.54l-12.02,2.21c-.04,9.01-.65,16.44-5.99,23.95-13.58,19.1-44.25,16.61-54.35-4.68-12.29-25.88,12.19-52.51,39.1-44.26l4.46-12.38c-21.29-6.46-44.47,1.94-54.78,21.94Z"/>
    <path d="M1164.4-123.54l-8.7,8.55c5.59,3.91,12.84,17.73,20.48,13.75l46.11-45.94-9.24-8.55-39.41,39.29c-2.28,1.17-7.27-7.45-9.25-7.1Z"/>
    <polygon points="1326.36 72.52 1326.36 59.05 1301.28 59.05 1300.16 60.17 1300.16 71.4 1301.28 72.52 1326.36 72.52"/>
  </g>
</svg>