<?xml version="1.0" encoding="UTF-8"?>
<svg id="ELEMENTS" xmlns="http://www.w3.org/2000/svg" version="1.1" viewBox="0 0 231.37 229.65">
  <!-- Generator: Adobe Illustrator 29.0.1, SVG Export Plug-In . SVG Version: 2.1.0 Build 192)  -->
  <path d="M154.68,159.08c-.55-8.61-4.49-13.85-12.75-16.39l.02-29.37c-.62-4.16-4-7.37-8.16-7.82H45.47c-4.44.06-7.69,3.44-8.8,7.55l-.14,29.84c-6.36,1.55-11.03,6.57-12.27,12.98l-.05,52.3,1.83,2.71h14.9c.3-.6,1.82-1.34,1.82-2v-10.35h93.01v9.99c0,.59,1.68,1.92,2.18,2.36h14.53c1.48-.96,2.12-2.4,2.19-4.16-.78-15.6.99-32.13,0-47.62ZM42.76,114.77c0-.97,1.13-2.7,2.24-2.85l87.69-.25c.96-.26,3.08,1.69,3.08,2.37v28.52h-6.18v-14.35c0-2.35-3.99-6.14-6.24-6.84-3.66-1.13-16.57-.94-20.84-.62-3.3.25-5.88.98-7.99,3.64-.54.68-1.99,3.09-1.99,3.82v14.35h-6.18v-13.26c0-3.12-3.41-6.88-6.34-7.83-3.57-1.16-20.86-1.18-24.48-.09-2.83.85-6.61,4.56-6.61,7.56v13.62h-6.18v-27.79ZM123.42,129.67v12.9h-24.7v-13.26c.13-.5,1.63-2.1,2.38-1.98,6.18.41,13.18-.62,19.26-.05,1.22.11,3.07,1.09,3.07,2.39ZM79.82,128.94v13.62h-24.34v-13.62c0-.82,2.26-1.58,3.07-1.65,4.26-.39,14.4-.48,18.55,0,.73.09,2.72,1.03,2.72,1.64ZM148.12,204.69h-6.18v-10.35c0-.83-2.08-2.34-3.07-2.02H39.65c-1.15-.32-3.07,1.45-3.07,2.38v9.99h-6.18v-24.7h117.71v24.7ZM148.12,173.45H30.41v-16.17c0-3.48,4.45-8.28,8.16-8.19l101.73.02c2.88-.35,7.82,4.56,7.82,7.08v17.26Z"/>
  <path d="M208.21,65.23L119.67,25.52l-2.59-.68L26.03,65.34c-.46.07-1.79,1.71-1.79,1.84v38.33h6.18v-35.24L117.12,31.47l86.95,38.79v35.24h6.18v-38.51l-2.04-1.77Z"/>
  <path d="M206.8,142.57c-13.63.99-29.11-1.31-42.52-.02-1.66.16-3.8,1.21-3.8,3.11v46.68h6.54v-18.53h37.06v18.53h6.18v-47.59c-.91-1.24-1.79-2.13-3.45-2.18ZM204.07,167.27h-37.06v-18.17h37.06v18.17Z"/>
  <path d="M198.08,121.13c.17,0,1.19-.55,1.45-.73,1.64-1.12,1.45-2.57,1.11-4.37-.5-2.62-4.95-16.09-6.17-18.17-.79-1.35-1.76-1.67-3.27-1.81-2.58-.25-9.93-.34-12.35.04-.94.15-1.62.71-2.19,1.45l-6.72,19.83c-.46,1.73,1.43,3.77,3.07,3.77h9.26v9.08h-6.18v6.18h18.89v-5.63l-.54-.54h-5.99v-9.08h9.63ZM177.55,114.59l3.98-11.82,7.48-.19.57.24,3.96,11.77h-15.99Z"/>
  <path d="M97.92,61.3c-8.81,17.09,7.12,36.22,25.5,30.95,10.13-2.9,17.59-14.01,15.07-24.53l-5.83,1.07c-.02,4.37-.32,7.98-2.91,11.63-6.59,9.27-21.48,8.06-26.38-2.27-5.96-12.56,5.92-25.48,18.98-21.48l2.16-6.01c-10.33-3.13-21.58.94-26.59,10.65Z"/>
  <path d="M113.11,66.3l-4.22,4.15c2.71,1.9,6.23,8.6,9.94,6.67l22.38-22.3-4.48-4.15-19.13,19.07c-1.11.57-3.53-3.61-4.49-3.45Z"/>
  <polygon points="191.72 161.46 191.72 154.92 179.55 154.92 179 155.46 179 160.91 179.55 161.46 191.72 161.46"/>
</svg>