<?xml version="1.0" encoding="UTF-8"?>
<svg id="ELEMENTS" xmlns="http://www.w3.org/2000/svg" version="1.1" viewBox="0 0 231.37 229.65">
  <!-- Generator: Adobe Illustrator 29.0.1, SVG Export Plug-In . SVG Version: 2.1.0 Build 192)  -->
  <g>
    <path d="M198.56,158.79c-1.26-2.67-4.87-1.99-5.11.96-.27,3.27,1.41,8.34,1.43,11.76,0,.41.02.84-.2,1.21-15.98,8.41-34.31,8.36-51.97,7.95v-35.29c5.32-1.69,10.15-4.64,15.08-7.21l15.65-10.78v15.74c0,.09,1.01,1.04,1.25,1.16,2.04,1.07,3.7-.43,3.94-2.54.67-6.02-.56-13.18.05-19.33,3.22-2.42,5.46-5.84,8.29-8.64.3-.3.29-.76.97-.58l4.24,35.37c.83,2.67,4.76,2.08,5.08-.63l-4.83-39.42c-.22-8.13-.85-18.84-2.57-26.82-.84-3.9-5.09-9.32-9.34-9.32h-13.29c-.54-2.94,2.31-4.1,3.6-6.59,1.77-3.41,2.64-15.84,2.22-19.83-.67-6.37-5.52-11.32-11.35-13.36h-8.29c-5.68,1.95-10.18,6.31-11.3,12.38-.76,4.12.23,17.44,2.26,21.07,1.36,2.43,3.85,3.24,3.17,6.34h-12.6c-2.28,0-6.45,3.55-7.57,5.56-1.83,3.26-2,11.28-1.58,15.03.26,2.29,1.77,3.83,4.14,2.76,2.48-1.11.96-10.96,1.47-13.75,1.3-7.17,14.07-3.37,19.01-4.48,1.57-.35,2.79-2.57,2.66-4.08,3.08.96,5.9.96,8.97,0-.2,1.47.37,2.35,1.36,3.34l-21.73,19.5v-8.82c0-.1-1.22-1.3-1.39-1.38-1.63-.7-3.21.1-3.79,1.73v44.29c.07,3.34-3.81,4.57-5.18,1.36l-.18-28.55c-1.67-3.55-5.02-2.24-5.37,1.55-.61,6.55-.52,19.01,0,25.63.48,6.12,4.59,9.56,10.71,8.12.03,2.15-.31,4.07.71,6.03.7,11.53-1,24.28-.03,35.67.2,2.4,1.52,2.68,1.73,3.8.2,1.03.11,10.62-.17,11.23-.22.49-1.25,1.28-1.69,2.12-1.72,3.33-1.71,9.78,3.06,10.35,2.99.36,11.53.36,14.52,0,1.36-.16,2.14-1.28,2.81-1.34.42-.04,1.82,1.19,3.04,1.33,3.15.38,10.94.31,14.18,0,4.74-.44,5.07-6.27,3.54-9.8-.52-1.2-1.83-1.98-1.99-2.85-.64-3.36.42-8.65.04-12.23,3.87-.94,7.76-1.85,11.53-3.15,2.71-.94,10.57-3.76,11.86-6.11.34-.62.73-2.02.74-2.72.04-4.09-1.7-9.5-1.81-13.76ZM144.09,185.87h6.22v9.34h-6.22v-9.34ZM147.72,44.37c3.65-10.73,19.67-8.2,20.19,3.1-1.96-1.14-2.68-5.06-4.81-5.73-4.34-1.36-4.48,2.86-6.92,4.87-1.68,1.38-3.81,2.1-5.96,1.8-3.24-.45-3.5-1.11-2.5-4.05ZM150.81,65.82c-3.72-3.48-2.86-7.82-3.27-12.46,3.84.83,7.81.42,11.02-1.93.67-.49,2.93-3.29,3.47-2.91,1.08,2.29,3.55,3.84,5.49,5.41-.68,4.08.24,8.15-2.85,11.41-4.19,4.44-9.43,4.64-13.87.48ZM141.67,103.7l29.02-25.93c4.38-.15,11.65-1.54,13.62,3.62l2.97,22.66c.06.77-.2,1.26-.57,1.89-.98,1.7-4.52,5.49-6.02,7.12-10.67,11.62-24.45,21.17-39.03,27.15v-36.5ZM153.07,204.2h-11.74c-.14-1.35.1-2.96,1.47-3.55,1.21-.52,8.15-.45,9.33.16,1.42.73.87,2.03.94,3.38ZM159.28,196.77c0,.16-1.56,1.21-1.39,1.9-.4.29-2.07-1.42-2.07-1.55v-11.24h3.45v10.9ZM164.46,185.87l6.22-.69v10.03h-6.22v-9.34ZM173.44,204.2h-11.74c-.14-1.35.1-2.96,1.47-3.55,1.21-.52,8.15-.45,9.33.16,1.42.73.87,2.03.94,3.38Z"/>
    <path d="M119.89,90.58c-13.96-4.17-28.3-8.14-42.53-11.19l-40.99,11.18c-1.02.82-1.75,2.07-1.76,3.43v53.66c0,1.35.74,2.61,1.76,3.43l41.6,11.28,41.5-11.02c1.05-.68,2.13-1.64,2.18-3.01l-.27-56.14-1.49-1.62ZM80.9,85.53l35.57,9.51v7.44l-35.57-6.4v-10.55ZM80.9,101.8l35.57,6.4v5.36l-35.57-4.5v-7.27ZM39.81,94.88l35.57-9.34v10.55l-35.57,6.4v-7.61ZM39.81,108.02l35.57-6.23v7.27l-35.57,4.5v-5.54ZM116.31,146.79l-34.89,9.33c-.73.04-.45,0-.52-.52-.29-1.95.82-5.72-1.97-6.34-4.12-.91-3.26,4.15-3.55,6.34-.07.5.2.58-.5.5l-35.08-9.56v-27.8s35.58-4.15,35.58-4.15v25.08c0,.1.72,1.72.87,1.89,1.33,1.53,4.65.27,4.65-1.2v-26.12l35.57,4.69-.16,27.85Z"/>
  </g>
  <g>
    <path d="M1250.04,67.63c-1.13-17.74-9.24-28.53-26.26-33.77l.04-60.51c-1.28-8.57-8.24-15.18-16.81-16.12h-181.96c-9.15.12-15.85,7.09-18.13,15.55l-.28,61.47c-13.11,3.19-22.73,13.54-25.28,26.74l-.09,107.76,3.77,5.58h30.69c.61-1.23,3.74-2.76,3.74-4.12v-21.33h191.63v20.58c0,1.22,3.45,3.96,4.49,4.87h29.94c3.04-1.97,4.38-4.94,4.52-8.58-1.61-32.15,2.03-66.2,0-98.12ZM1019.46-23.66c0-2.01,2.33-5.56,4.61-5.87l180.67-.51c1.98-.53,6.35,3.49,6.35,4.88v58.76h-12.73V4.03c0-4.84-8.22-12.65-12.86-14.09-7.54-2.34-34.13-1.95-42.93-1.29-6.8.51-12.11,2.02-16.46,7.49-1.12,1.41-4.1,6.36-4.1,7.88v29.57h-12.73V6.28c0-6.43-7.03-14.18-13.06-16.13-7.35-2.39-42.98-2.43-50.43-.19-5.83,1.75-13.61,9.39-13.61,15.58v28.07h-12.73V-23.66ZM1185.63,7.03v26.57h-50.9V6.28c.26-1.04,3.35-4.32,4.91-4.07,12.73.84,27.15-1.27,39.67-.1,2.51.24,6.32,2.25,6.32,4.92ZM1095.81,5.53v28.07h-50.15V5.53c0-1.68,4.66-3.25,6.33-3.4,8.78-.81,29.66-1,38.23.02,1.51.18,5.6,2.13,5.6,3.39ZM1236.53,161.6h-12.73v-21.33c0-1.71-4.29-4.83-6.33-4.15h-204.43c-2.37-.65-6.32,3-6.32,4.9v20.58h-12.73v-50.9h242.53v50.9ZM1236.53,97.23h-242.53v-33.31c0-7.18,9.17-17.06,16.81-16.87l209.61.04c5.94-.72,16.1,9.4,16.1,14.59v35.56Z"/>
    <path d="M1360.33-125.75l-182.42-81.81-5.34-1.4-187.59,83.44c-.95.14-3.69,3.53-3.69,3.79V-42.75h12.73v-72.61l178.65-79.93,179.15,79.93V-42.75h12.73v-79.35l-4.21-3.65Z"/>
    <path d="M1357.42,33.6c-28.09,2.03-59.98-2.7-87.62-.04-3.42.33-7.82,2.5-7.82,6.4v96.19h13.47v-38.18h76.35v38.18h12.73V38.09c-1.87-2.56-3.68-4.4-7.11-4.49ZM1351.81,84.5h-76.35v-37.43h76.35v37.43Z"/>
    <path d="M1339.46-10.56c.35,0,2.45-1.14,2.99-1.5,3.39-2.31,3-5.3,2.29-9.01-1.03-5.4-10.2-33.15-12.71-37.44-1.63-2.78-3.63-3.44-6.75-3.73-5.32-.51-20.46-.71-25.45.08-1.93.31-3.34,1.47-4.5,2.98l-13.84,40.85c-.96,3.57,2.95,7.77,6.33,7.77h19.09V8.15h-12.73v12.73h38.92v-11.6l-1.12-1.12h-12.35V-10.56h19.84ZM1297.17-24.04l8.2-24.36,15.41-.39,1.18.5,8.15,24.26h-32.94Z"/>
    <path d="M1133.1-133.84c-18.16,35.2,14.67,74.62,52.54,63.77,20.87-5.98,36.24-28.86,31.05-50.54l-12.02,2.21c-.04,9.01-.65,16.44-5.99,23.95-13.58,19.1-44.25,16.61-54.35-4.68-12.29-25.88,12.19-52.51,39.1-44.26l4.46-12.38c-21.29-6.46-44.47,1.94-54.78,21.94Z"/>
    <path d="M1164.4-123.54l-8.7,8.55c5.59,3.91,12.84,17.73,20.48,13.75l46.11-45.94-9.24-8.55-39.41,39.29c-2.28,1.17-7.27-7.45-9.25-7.1Z"/>
    <polygon points="1326.36 72.52 1326.36 59.05 1301.28 59.05 1300.16 60.17 1300.16 71.4 1301.28 72.52 1326.36 72.52"/>
  </g>
</svg>