<?xml version="1.0" encoding="UTF-8"?>
<svg id="ELEMENTS" xmlns="http://www.w3.org/2000/svg" version="1.1" viewBox="0 0 284.25 229.65">
  <!-- Generator: Adobe Illustrator 29.0.1, SVG Export Plug-In . SVG Version: 2.1.0 Build 192)  -->
  <defs>
    <style>
      .st0 {
        fill: none;
        stroke: #000;
        stroke-miterlimit: 10;
        stroke-width: 13px;
      }
    </style>
  </defs>
  <path class="st0" d="M231.42,167.47l19.5-24.52-21.89-9.81-32.65,12.26-31.3-14.78,48.87-50.14-35.39-1.18-59.2,29.65c-13.02-5.04-25.48-12.58-38.43-17.63-11.67-4.55-24.52-6.72-36.4-1.57-4.89,2.12-9.64,5.32-11.19,10.7v3.4c2.32,8.22,10.67,12.16,17.7,15.66,40.6,20.23,82.81,37.48,123.53,57.51,12.9,5.25,38.39,10.41,51.62,5.99,5.11-1.7,9.03-5.33,7.54-11.18-.35-1.37-2.53-3.51-2.3-4.36Z"/>
</svg>